<?xml version="1.0" encoding="UTF-8" standalone="no"?>
<!DOCTYPE svg PUBLIC "-//W3C//DTD SVG 1.1//EN" "http://www.w3.org/Graphics/SVG/1.1/DTD/svg11.dtd">
<svg width="100%" height="100%" viewBox="0 0 34 34" version="1.1" xmlns="http://www.w3.org/2000/svg" xmlns:xlink="http://www.w3.org/1999/xlink" xml:space="preserve" xmlns:serif="http://www.serif.com/" style="fill-rule:evenodd;clip-rule:evenodd;stroke-linecap:round;stroke-linejoin:round;stroke-miterlimit:1.5;">
    <g transform="matrix(1,0,0,1,-650.261,-1710.33)">
        <g transform="matrix(1,0,0,2.1989,179.529,-2.00229)">
            <g>
                <g transform="matrix(0.0862289,0,0,0.0392145,464.309,776.648)">
                    <circle cx="271.157" cy="249.555" r="187.137" style="fill:none;stroke:white;stroke-width:19.08px;"/>
                </g>
                <g transform="matrix(0.0638308,0,0,0.0290285,470.291,778.284)">
                    <path d="M336.294,312.121C361.997,303.142 374.849,286.213 374.849,261.324C374.849,248.268 372.708,237.966 368.423,230.418C364.14,222.87 357.306,216.648 347.921,211.752C343.433,209.304 338.13,207.876 332.009,207.468C325.89,207.06 319.364,206.958 312.425,207.162C305.489,207.366 298.148,207.774 290.394,208.386C282.642,208.998 274.89,209.304 267.14,209.304C259.388,209.304 251.636,208.998 243.884,208.386C236.132,207.774 228.788,207.366 221.852,207.162C214.916,206.958 208.388,207.06 202.268,207.468C196.148,207.876 190.844,209.304 186.356,211.752C176.972,216.648 170.24,222.87 166.16,230.418C162.08,237.966 160.04,248.268 160.04,261.324C160.04,286.213 172.892,303.144 198.596,312.121C203.084,313.344 207.98,314.566 213.284,315.793C217.772,316.606 223.382,317.424 230.114,318.238C236.846,319.054 244.7,319.465 253.676,319.465L280.603,319.465C289.171,319.465 296.923,319.057 303.863,318.238C310.799,317.424 316.715,316.605 321.611,315.793C327.318,314.568 332.214,313.344 336.294,312.121ZM409.734,223.38C409.734,236.436 408.304,248.778 405.451,260.406C402.594,272.031 397.291,282.541 389.539,291.924C381.787,301.309 371.076,309.061 357.408,315.18C343.74,321.301 326.299,325.176 305.082,326.809C308.346,328.44 312.529,330.481 317.629,332.928C322.729,335.377 327.115,340.069 330.787,347.004C332.826,351.49 334.152,358.02 334.764,366.588C335.377,375.154 335.682,383.928 335.682,392.902C335.682,401.881 335.58,410.14 335.377,417.687C335.172,425.236 335.479,429.828 336.295,431.458C337.926,434.722 340.274,437.577 343.332,440.024C346.393,442.471 348.943,444.307 350.982,445.532C353.021,446.759 353.632,448.288 352.818,450.124C352.002,451.96 349.146,453.083 344.25,453.487C341.803,453.487 338.742,453.083 335.07,452.264C331.398,451.448 327.927,450.02 324.666,447.979C321.404,445.94 318.648,443.389 316.404,440.333C314.16,437.27 313.039,433.294 313.039,428.395L313.039,378.211C313.039,372.5 311.713,368.42 309.059,365.971C306.411,363.524 303.657,361.891 300.797,361.076L300.797,427.172C300.797,439.004 302.225,446.756 305.082,450.428C306.305,452.061 307.428,453.795 308.447,455.631C309.466,457.467 310.08,458.996 310.283,460.221C310.488,461.444 309.773,462.159 308.138,462.364C306.507,462.567 303.449,462.057 298.958,460.835C290.39,458.796 284.27,454.103 280.599,446.759C276.928,439.415 275.091,431.663 275.091,423.503L275.091,358.632L261.63,358.632L261.63,423.503C261.63,431.663 259.896,439.415 256.428,446.759C252.96,454.103 246.738,458.796 237.762,460.835C233.274,462.06 230.316,462.567 228.888,462.364C227.46,462.161 226.746,461.444 226.746,460.221C226.746,458.996 227.358,457.467 228.582,455.631C229.806,453.795 231.03,452.061 232.254,450.428C233.07,448.797 233.988,445.94 235.008,441.86C236.028,437.782 236.538,432.885 236.538,427.172L236.538,361.076C233.682,361.89 231.03,363.521 228.582,365.972C226.134,368.419 224.91,372.499 224.91,378.212L224.91,428.396C224.91,433.292 223.788,437.269 221.544,440.332C219.3,443.393 216.546,445.939 213.282,447.98C210.018,450.019 206.55,451.451 202.878,452.263C199.206,453.079 196.146,453.488 193.698,453.488C188.802,453.082 185.946,451.961 185.13,450.125C184.314,448.289 184.926,446.758 186.966,445.535C189.006,444.308 191.556,442.472 194.616,440.023C197.676,437.578 200.022,434.72 201.654,431.459C202.47,429.418 202.776,424.012 202.572,415.238C202.368,406.467 202.266,396.775 202.266,386.17C199.002,387.395 194.718,388.211 189.414,388.619C184.11,389.023 178.194,388.619 171.666,387.392C160.65,385.351 152.286,381.785 146.574,376.681C140.862,371.581 135.354,363.523 130.05,352.507C127.194,347.204 124.032,342.818 120.564,339.349C117.096,335.882 114.036,333.128 111.384,331.087C108.732,329.048 106.692,327.314 105.264,325.886C103.836,324.458 103.734,323.132 104.958,321.907C107.406,319.052 110.772,317.827 115.056,318.233C119.34,318.641 121.89,319.254 122.706,320.069C127.602,322.108 132.498,326.393 137.394,332.923C142.29,339.454 147.39,344.96 152.694,349.446C155.142,351.485 158.202,353.524 161.874,355.565C165.546,357.604 169.626,359.036 174.114,359.848C178.602,360.664 183.498,360.664 188.802,359.848C194.106,359.035 199.41,356.789 204.714,353.119C205.938,347.812 207.876,343.633 210.528,340.57C213.18,337.509 216.036,335.062 219.096,333.226C222.156,331.39 225.012,329.962 227.664,328.941C230.316,327.921 232.458,327.003 234.09,326.187C211.65,324.556 193.29,320.785 179.01,314.869C164.73,308.953 153.408,301.402 145.044,292.223C136.68,283.043 130.968,272.537 127.908,260.704C124.848,248.872 123.318,236.428 123.318,223.372C123.318,209.908 125.358,197.872 129.438,187.264C133.518,176.656 139.23,167.272 146.574,159.112C143.31,149.32 142.188,139.018 143.208,128.206C144.228,117.394 146.37,107.704 149.634,99.136C165.138,99.952 178.092,103.216 188.496,108.928C198.9,114.64 206.142,119.332 210.222,123.004C227.766,118.108 245.922,115.66 264.69,115.66L268.974,115.66C286.517,115.66 303.453,117.7 319.769,121.78C324.257,118.108 331.601,113.62 341.802,108.316C352.001,103.012 364.652,99.952 379.745,99.136C383.009,107.296 385.151,116.476 386.171,126.676C387.192,136.876 386.478,146.668 384.03,156.052C392.19,164.212 398.51,173.902 403.001,185.122C407.49,196.35 409.734,209.1 409.734,223.38ZM266.526,209.304L267.75,209.304L266.526,209.304ZM345.474,257.04C345.474,262.752 343.947,267.648 340.884,271.728C337.823,275.808 334.05,277.847 329.562,277.847C325.076,277.847 321.404,275.808 318.546,271.728C315.692,267.647 314.261,262.751 314.261,257.04C314.261,251.329 315.693,246.432 318.546,242.352C321.401,238.272 325.073,236.232 329.562,236.232C334.051,236.232 337.826,238.272 340.884,242.352C343.945,246.432 345.474,251.328 345.474,257.04ZM225.522,257.04C225.522,262.752 223.992,267.648 220.932,271.728C217.872,275.808 214.098,277.847 209.61,277.847C205.122,277.847 201.45,275.808 198.594,271.728C195.738,267.647 194.31,262.751 194.31,257.04C194.31,251.329 195.738,246.432 198.594,242.352C201.45,238.272 205.122,236.232 209.61,236.232C214.098,236.232 217.872,238.272 220.932,242.352C223.993,246.432 225.522,251.328 225.522,257.04Z" style="fill:white;fill-rule:nonzero;"/>
                </g>
            </g>
        </g>
    </g>
</svg>
